<svg width="2000" height="674" viewBox="0 0 2000 674" fill="none" xmlns="http://www.w3.org/2000/svg">
<path fill-rule="evenodd" fill="#F9F8FF" clip-rule="evenodd" d="M0 53.103L83.5005 44.9333C168.856 35.9467 335.857 17.9733 504.714 35.9467C671.715 53.103 840.571 107.023 1009.43 138.068C1176.43 169.113 1345.29 178.099 1512.29 151.139C1681.14 124.179 1848.14 62.0897 1933.5 31.0448L2000 0V215.272V674C1931.64 674 1681.14 674 1512.29 674C1345.29 674 1176.43 674 1009.43 674C840.571 674 671.715 674 504.714 674C335.857 674 168.856 674 83.5005 674H0L0 53.103Z"/>
</svg>
